<?xml version="1.0" encoding="utf-8" ?>
<svg xmlns="http://www.w3.org/2000/svg" xmlns:xlink="http://www.w3.org/1999/xlink" width="512" height="512">
	<path d="M259.884 190.209L256.215 190.479C243.999 190.59 232.965 179.344 230.783 167.776C230.135 164.343 230.533 160.189 230.525 156.683L230.503 46.9318C234.5 44.4932 247.249 43.6848 251.904 43.3506C256.55 41.8019 276.78 45.4295 281.59 47.025L281.424 153.212C281.422 157.512 281.719 162.112 281.26 166.376C280.051 177.586 270.605 187.508 259.884 190.209Z"/>
	<path d="M342.21 191.557L338.885 195.127C321.477 211.139 296.487 198.584 293.07 176.25C292.007 169.305 292.538 161.718 292.533 154.695L292.115 50.8279C299.003 53.1493 305.273 57.1592 311.333 61.7244C338.282 82.0244 353.337 112.798 353.34 146.287C353.341 161.862 352.026 178.793 342.21 191.557Z"/>
	<path d="M170.272 192.08C152.533 170.745 156.741 125.027 168.074 101.566C178.285 80.4252 196.693 59.56 219.478 51.625L219.335 165.426C219.094 176.547 217.121 187.394 208.719 195.389C196.488 207.029 181.093 203.7 170.272 192.08Z"/>
	<path d="M487.313 219.125L487.318 311.506C487.312 334.806 484.895 353.99 476.735 376.375C460.253 421.588 420.855 456.143 372.625 463.056C345.326 466.969 334.378 460.396 308.952 453.206C273.55 443.196 234.736 444.09 199.457 454.451L176.481 461.532C140.219 470.79 101.725 456.042 74.0242 432.612C39.7903 403.656 25.1565 359.209 24.9719 315.527L24.9783 173.7C24.9841 169.756 24.9109 165.824 25.5437 161.916C29.5703 137.045 50.1226 118.161 75.2762 116.103C76.4975 116.061 78.4406 115.765 79.5729 116.098L79.4935 324.959C80.1036 350.072 91.5091 375.09 109.715 392.29L110.509 393.023C123.662 404.838 143.65 413.479 161.465 409.811C167.31 408.607 173.023 406.444 178.719 404.666L203.2 398.151C243.227 389.529 281.851 390.447 321.691 401L336.636 405.698C344.743 408.55 351.753 410.772 360.436 410.482C402.032 409.089 429.585 366.686 432.499 328.351C432.823 324.081 432.723 319.775 432.727 315.497L432.55 116.165C459.834 116.273 484.48 137.101 487.201 164.431C487.481 167.248 487.342 170.163 487.337 172.997L487.313 219.125Z"/>
	<path d="M132.629 240.579L131.916 241.375C117.605 255.896 92.9655 247.494 89.3244 227.465C88.6728 223.881 89.0197 219.662 89.0175 216.014L88.9895 116.942C122.538 128.502 138.323 153.628 140.733 189.175C141.107 194.685 140.875 200.35 140.875 205.883C140.875 218.566 141.512 230.367 132.629 240.579Z"/>
	<path d="M379.336 241.206C373.042 234.881 370.854 227.041 370.804 218.446L370.934 189.711C372.461 162.115 384.102 136.451 408.912 122.67C413.056 120.368 417.507 118.347 422.162 117.375C422.551 117.386 422.361 117.362 422.808 117.551C422.205 127.181 422.585 137.038 422.586 146.694L422.592 214.939C422.584 219.238 422.764 223.573 422.023 227.823C418.353 248.888 394.153 254.863 379.336 241.206Z"/>
	<path d="M259.032 258.258L250.636 258.298C213.657 259.72 181.457 287.704 158.927 314.495L149.875 325.911C142.299 336.26 136.274 344.934 121.729 345.235C102.119 345.641 92.5923 324.872 99.575 307.972C102.262 301.468 106.788 295.554 111.022 289.973C145.392 244.668 194.986 205.2 254.086 204.683L264.948 204.729C271.648 204.974 278.594 206.405 285.14 207.801C325.02 216.306 357.426 241.637 384.729 270.916L403.083 292.623C406.592 297.177 410.432 301.878 412.645 307.226C424.573 336.049 392.281 358.785 370.233 335.85C366.311 331.77 363.156 326.788 359.75 322.273C334.972 289.429 302.259 260.371 259.032 258.258Z"/>
</svg>
